<svg width="16.500000" height="16.500000" viewBox="0 0 16.5 16.5" fill="none" xmlns="http://www.w3.org/2000/svg" xmlns:xlink="http://www.w3.org/1999/xlink">
	<desc>
			Created with Pixso.
	</desc>
	<defs/>
	<path id="Vector" d="M3.87 0.75L3.87 2.62M12.62 0.75L12.62 2.62M0.75 4.5C0.75 4 0.94 3.52 1.29 3.17C1.65 2.82 2.12 2.62 2.62 2.62L13.87 2.62C14.37 2.62 14.84 2.82 15.2 3.17C15.55 3.52 15.75 4 15.75 4.5L15.75 13.87C15.75 14.37 15.55 14.84 15.2 15.2C14.84 15.55 14.37 15.75 13.87 15.75L2.62 15.75C2.12 15.75 1.65 15.55 1.29 15.2C0.94 14.84 0.75 14.37 0.75 13.87L0.75 4.5ZM0.75 13.87L0.75 7.62C0.75 7.12 0.94 6.65 1.29 6.29C1.65 5.94 2.12 5.75 2.62 5.75L13.87 5.75C14.37 5.75 14.84 5.94 15.2 6.29C15.55 6.65 15.75 7.12 15.75 7.62L15.75 13.87" stroke="#5A5A5A" stroke-opacity="1.000000" stroke-width="1.500000" stroke-linejoin="round" stroke-linecap="round"/>
</svg>
