<svg width="32.000000" height="32.000000" viewBox="0 0 32 32" fill="none" xmlns="http://www.w3.org/2000/svg" xmlns:xlink="http://www.w3.org/1999/xlink">
	<desc>
			Created with Pixso.
	</desc>
	<defs>
		<clipPath id="clip12_889">
			<rect id="instagram-2016-5 1" rx="-0.500000" width="31.000000" height="31.000000" transform="translate(0.500000 0.500000)" fill="white" fill-opacity="0"/>
		</clipPath>
		<radialGradient gradientTransform="translate(4.25203 32.1512) rotate(0) scale(41.7733 41.7733)" cx="0.000000" cy="0.000000" r="1.000000" id="paint_radial_12_890_0" gradientUnits="userSpaceOnUse">
			<stop offset="0.090000" stop-color="#FA8F21"/>
			<stop offset="0.780000" stop-color="#D82D7E"/>
		</radialGradient>
		<radialGradient gradientTransform="translate(19.4072 33.5848) rotate(0) scale(32.9231 32.9231)" cx="0.000000" cy="0.000000" r="1.000000" id="paint_radial_12_891_0" gradientUnits="userSpaceOnUse">
			<stop offset="0.640000" stop-color="#8C3AAA" stop-opacity="0.000000"/>
			<stop offset="1.000000" stop-color="#8C3AAA"/>
		</radialGradient>
	</defs>
	<rect id="instagram-2016-5 1" rx="-0.500000" width="31.000000" height="31.000000" transform="translate(0.500000 0.500000)" fill="#FFFFFF" fill-opacity="0"/>
	<g clip-path="url(#clip12_889)">
		<path id="Vector" d="M10.66 16C10.66 13.05 13.05 10.66 16 10.66C18.94 10.66 21.33 13.05 21.33 16C21.33 18.94 18.94 21.33 16 21.33C13.05 21.33 10.66 18.94 10.66 16ZM7.78 16C7.78 20.53 11.46 24.21 16 24.21C20.53 24.21 24.21 20.53 24.21 16C24.21 11.46 20.53 7.78 16 7.78C11.46 7.78 7.78 11.46 7.78 16ZM22.62 7.45C22.62 7.83 22.73 8.2 22.94 8.52C23.15 8.84 23.45 9.08 23.8 9.23C24.15 9.37 24.54 9.41 24.91 9.34C25.28 9.26 25.63 9.08 25.89 8.81C26.16 8.54 26.35 8.2 26.42 7.83C26.49 7.46 26.46 7.07 26.31 6.72C26.17 6.37 25.92 6.07 25.6 5.86C25.29 5.65 24.92 5.53 24.54 5.53L24.54 5.53C24.03 5.53 23.54 5.74 23.18 6.1C22.82 6.46 22.62 6.94 22.62 7.45ZM9.53 29.02C7.97 28.95 7.12 28.69 6.56 28.47C5.81 28.18 5.28 27.83 4.72 27.27C4.16 26.71 3.81 26.18 3.52 25.43C3.3 24.87 3.04 24.02 2.97 22.46C2.9 20.77 2.88 20.27 2.88 16C2.88 11.72 2.9 11.22 2.97 9.53C3.04 7.97 3.31 7.12 3.52 6.56C3.81 5.81 4.16 5.28 4.72 4.72C5.28 4.16 5.81 3.81 6.56 3.52C7.12 3.3 7.97 3.04 9.53 2.97C11.22 2.89 11.72 2.88 16 2.88C20.27 2.88 20.77 2.89 22.46 2.97C24.02 3.04 24.87 3.3 25.43 3.52C26.18 3.81 26.71 4.16 27.27 4.72C27.83 5.28 28.18 5.81 28.47 6.56C28.69 7.12 28.95 7.97 29.02 9.53C29.1 11.22 29.11 11.72 29.11 16C29.11 20.27 29.1 20.77 29.02 22.46C28.95 24.02 28.69 24.87 28.47 25.43C28.18 26.18 27.83 26.71 27.27 27.27C26.71 27.83 26.18 28.18 25.43 28.47C24.87 28.69 24.02 28.95 22.46 29.02C20.78 29.1 20.27 29.11 16 29.11C11.72 29.11 11.22 29.1 9.53 29.02ZM9.4 0.09C7.7 0.17 6.53 0.44 5.52 0.84C4.46 1.24 3.57 1.79 2.68 2.68C1.79 3.57 1.24 4.46 0.84 5.51C0.44 6.53 0.17 7.7 0.09 9.4C0.01 11.1 0 11.65 0 16C0 20.34 0.01 20.89 0.09 22.59C0.17 24.29 0.44 25.46 0.84 26.48C1.24 27.53 1.79 28.42 2.68 29.31C3.57 30.2 4.46 30.75 5.52 31.15C6.53 31.55 7.7 31.82 9.4 31.9C11.11 31.98 11.65 32 16 32C20.34 32 20.89 31.98 22.59 31.9C24.3 31.82 25.46 31.55 26.48 31.15C27.53 30.75 28.42 30.2 29.31 29.31C30.2 28.42 30.75 27.53 31.16 26.48C31.55 25.46 31.82 24.29 31.9 22.59C31.98 20.88 31.99 20.34 31.99 16C31.99 11.65 31.98 11.1 31.9 9.4C31.82 7.7 31.55 6.53 31.16 5.51C30.75 4.46 30.2 3.57 29.31 2.68C28.42 1.79 27.53 1.24 26.48 0.84C25.46 0.44 24.3 0.17 22.59 0.09C20.89 0.01 20.34 0 16 0C11.65 0 11.11 0.01 9.4 0.09Z" fill="url(#paint_radial_12_890_0)" fill-opacity="1.000000" fill-rule="nonzero"/>
		<path id="Vector" d="M10.66 16C10.66 13.05 13.05 10.66 16 10.66C18.94 10.66 21.33 13.05 21.33 16C21.33 18.94 18.94 21.33 16 21.33C13.05 21.33 10.66 18.94 10.66 16ZM7.78 16C7.78 20.53 11.46 24.21 16 24.21C20.53 24.21 24.21 20.53 24.21 16C24.21 11.46 20.53 7.78 16 7.78C11.46 7.78 7.78 11.46 7.78 16ZM22.62 7.45C22.62 7.83 22.73 8.2 22.94 8.52C23.15 8.84 23.45 9.08 23.8 9.23C24.15 9.37 24.54 9.41 24.91 9.34C25.28 9.26 25.63 9.08 25.89 8.81C26.16 8.54 26.35 8.2 26.42 7.83C26.49 7.46 26.46 7.07 26.31 6.72C26.17 6.37 25.92 6.07 25.6 5.86C25.29 5.65 24.92 5.53 24.54 5.53L24.54 5.53C24.03 5.53 23.54 5.74 23.18 6.1C22.82 6.46 22.62 6.94 22.62 7.45ZM9.53 29.02C7.97 28.95 7.12 28.69 6.56 28.47C5.81 28.18 5.28 27.83 4.72 27.27C4.16 26.71 3.81 26.18 3.52 25.43C3.3 24.87 3.04 24.02 2.97 22.46C2.9 20.77 2.88 20.27 2.88 16C2.88 11.72 2.9 11.22 2.97 9.53C3.04 7.97 3.31 7.12 3.52 6.56C3.81 5.81 4.16 5.28 4.72 4.72C5.28 4.16 5.81 3.81 6.56 3.52C7.12 3.3 7.97 3.04 9.53 2.97C11.22 2.89 11.72 2.88 16 2.88C20.27 2.88 20.77 2.89 22.46 2.97C24.02 3.04 24.87 3.3 25.43 3.52C26.18 3.81 26.71 4.16 27.27 4.72C27.83 5.28 28.18 5.81 28.47 6.56C28.69 7.12 28.95 7.97 29.02 9.53C29.1 11.22 29.11 11.72 29.11 16C29.11 20.27 29.1 20.77 29.02 22.46C28.95 24.02 28.69 24.87 28.47 25.43C28.18 26.18 27.83 26.71 27.27 27.27C26.71 27.83 26.18 28.18 25.43 28.47C24.87 28.69 24.02 28.95 22.46 29.02C20.78 29.1 20.27 29.11 16 29.11C11.72 29.11 11.22 29.1 9.53 29.02ZM9.4 0.09C7.7 0.17 6.53 0.44 5.52 0.84C4.46 1.24 3.57 1.79 2.68 2.68C1.79 3.57 1.24 4.46 0.84 5.51C0.44 6.53 0.17 7.7 0.09 9.4C0.01 11.1 0 11.65 0 16C0 20.34 0.01 20.89 0.09 22.59C0.17 24.29 0.44 25.46 0.84 26.48C1.24 27.53 1.79 28.42 2.68 29.31C3.57 30.2 4.46 30.75 5.52 31.15C6.53 31.55 7.7 31.82 9.4 31.9C11.11 31.98 11.65 32 16 32C20.34 32 20.89 31.98 22.59 31.9C24.3 31.82 25.46 31.55 26.48 31.15C27.53 30.75 28.42 30.2 29.31 29.31C30.2 28.42 30.75 27.53 31.16 26.48C31.55 25.46 31.82 24.29 31.9 22.59C31.98 20.88 31.99 20.34 31.99 16C31.99 11.65 31.98 11.1 31.9 9.4C31.82 7.7 31.55 6.53 31.16 5.51C30.75 4.46 30.2 3.57 29.31 2.68C28.42 1.79 27.53 1.24 26.48 0.84C25.46 0.44 24.3 0.17 22.59 0.09C20.89 0.01 20.34 0 16 0C11.65 0 11.11 0.01 9.4 0.09Z" fill="url(#paint_radial_12_891_0)" fill-opacity="1.000000" fill-rule="nonzero"/>
	</g>
</svg>
